<svg width="79" height="41" viewBox="0 0 79 41" fill="none" xmlns="http://www.w3.org/2000/svg">
<path d="M23.2879 14.3196L16.6581 32.1602L13.9839 16.9868C13.6496 15.2679 12.4239 14.3196 11.0311 14.3196H0.167143L0 15.0901C2.22854 15.6235 4.73561 16.4533 6.29554 17.3424C7.24264 17.8758 7.52122 18.35 7.79979 19.654L12.8696 40.5769H19.6666L30.0289 14.3196H23.2879Z" fill="white"/>
<path d="M32.7585 14.3196L27.4658 40.5769H33.8728L39.1096 14.3196H32.7585Z" fill="white"/>
<path d="M47.5232 21.6101C47.5232 20.6618 48.4145 19.6542 50.2531 19.4171C51.1444 19.2985 53.7072 19.18 56.5488 20.6025L57.6631 15.031C56.1029 14.4383 54.1531 13.8456 51.7016 13.8456C45.4063 13.8456 40.9491 17.4019 40.8937 22.5585C40.8379 26.3517 44.0691 28.4265 46.4647 29.6711C48.9717 30.975 49.8076 31.7455 49.7518 32.9311C49.7518 34.7091 47.7461 35.4795 45.9634 35.4795C42.7318 35.5389 40.8937 34.5314 39.3894 33.8203L38.2192 39.5693C39.7236 40.2805 42.4535 40.9326 45.2946 40.9326C51.9804 40.9326 56.3817 37.4356 56.3817 31.9235C56.4929 25.1072 47.4678 24.6923 47.5232 21.6101Z" fill="white"/>
<path fill-rule="evenodd" clip-rule="evenodd" d="M65.6848 16.2158C66.1303 15.0896 67.1887 14.3191 68.4147 14.3191V14.2598H73.8744L79 40.5171H73.0944L72.3143 36.605H64.1246L62.7874 40.5171H56.1021L65.6848 16.2158ZM69.3623 21.4315L65.9636 31.2706H71.2562L69.3623 21.4315Z" fill="white"/>
<path fill-rule="evenodd" clip-rule="evenodd" d="M71.9459 4.80742C71.6247 4.80742 71.338 4.86785 71.0856 4.98723C70.833 5.1076 70.6198 5.27006 70.4448 5.47264C70.2705 5.67623 70.1355 5.91448 70.0415 6.18939C69.9474 6.4638 69.8998 6.75505 69.8998 7.06414C69.8998 7.37274 69.9474 7.66448 70.0415 7.9384C70.1355 8.21281 70.2705 8.45205 70.4448 8.65514C70.6198 8.85872 70.833 9.02019 71.0856 9.14056C71.338 9.26044 71.6247 9.32037 71.9459 9.32037C72.2527 9.32037 72.5314 9.26292 72.782 9.14799C73.0315 9.03259 73.2467 8.87457 73.4262 8.67346C73.6056 8.47287 73.7448 8.23511 73.8437 7.9607C73.9433 7.68627 73.993 7.38709 73.993 7.06414C73.993 6.7402 73.9433 6.44152 73.8437 6.16709C73.7448 5.89219 73.6056 5.65492 73.4262 5.45382C73.2467 5.25371 73.0315 5.0952 72.782 4.98029C72.5314 4.86536 72.2527 4.80742 71.9459 4.80742ZM71.77 3.35933C72.2561 3.35933 72.6736 3.45394 73.0234 3.64216C73.3728 3.83088 73.6652 4.08202 73.9015 4.39555V0H75.3811V10.5842H73.9015V9.73918C73.6652 10.0527 73.3728 10.3024 73.0234 10.4886C72.6736 10.6754 72.2561 10.7685 71.77 10.7685C71.2932 10.7685 70.8494 10.6763 70.4391 10.4931C70.0281 10.3088 69.6693 10.0527 69.3626 9.72433C69.0558 9.39641 68.8152 9.00559 68.6402 8.55237C68.4659 8.09864 68.3781 7.60282 68.3781 7.06391C68.3781 6.52449 68.4659 6.02818 68.6402 5.57543C68.8152 5.12222 69.0558 4.73091 69.3626 4.40299C69.6693 4.07459 70.0281 3.81899 70.4391 3.63474C70.8494 3.45146 71.2932 3.35933 71.77 3.35933ZM66.9114 3.35957C67.1385 3.35957 67.3426 3.37542 67.5235 3.40762C67.7059 3.43932 67.8814 3.48935 68.0513 3.5577L67.6972 5.07936C67.5421 4.99614 67.3603 4.93224 67.1528 4.88867C66.9447 4.84458 66.7504 4.82278 66.571 4.82278C66.3354 4.82278 66.1188 4.86388 65.9207 4.9476C65.7217 5.03082 65.5523 5.15316 65.4106 5.31513C65.2689 5.47661 65.1577 5.67475 65.0775 5.91052C64.9973 6.1453 64.9573 6.41279 64.9573 6.71148V10.585H63.4781V3.54335H64.9434V4.33736C65.17 3.99905 65.4506 3.75187 65.7857 3.59485C66.1211 3.43834 66.4961 3.35957 66.9114 3.35957ZM57.8621 4.80742C57.5415 4.80742 57.2546 4.86785 57.0022 4.98723C56.7493 5.1076 56.536 5.27006 56.3619 5.47264C56.1872 5.67623 56.0517 5.91448 55.9578 6.18939C55.8636 6.4638 55.8161 6.75505 55.8161 7.06414C55.8161 7.37274 55.8636 7.66448 55.9578 7.9384C56.0522 8.21281 56.1872 8.45205 56.3619 8.65514C56.536 8.85872 56.7493 9.02019 57.0022 9.14056C57.2546 9.26044 57.5415 9.32037 57.8621 9.32037C58.169 9.32037 58.4476 9.26292 58.6981 9.14799C58.9481 9.03259 59.1628 8.87457 59.3422 8.67346C59.5217 8.47287 59.6611 8.23511 59.7603 7.9607C59.8601 7.68627 59.9087 7.38709 59.9087 7.06414C59.9087 6.7402 59.8601 6.44152 59.7603 6.16709C59.6611 5.89219 59.5217 5.65492 59.3422 5.45382C59.1628 5.25371 58.9487 5.0952 58.6981 4.98029C58.4476 4.86536 58.169 4.80742 57.8621 4.80742ZM61.2968 10.5843H59.8165V9.73926C59.5809 10.0528 59.2883 10.3025 58.939 10.4887C58.5893 10.6754 58.1718 10.7686 57.685 10.7686C57.2082 10.7686 56.765 10.6764 56.3541 10.4932C55.9438 10.3089 55.585 10.0528 55.2776 9.7244C54.9708 9.3965 54.7304 9.00568 54.5561 8.55246C54.3811 8.09873 54.2936 7.60291 54.2936 7.06398C54.2936 6.52457 54.3811 6.02825 54.5561 5.57552C54.7304 5.12229 54.9708 4.73098 55.2776 4.40307C55.585 4.07466 55.9438 3.81908 56.3541 3.63481C56.765 3.45105 57.2082 3.35892 57.685 3.35892C58.1718 3.35892 58.5893 3.45401 58.939 3.64224C59.2883 3.83097 59.5809 4.08209 59.8165 4.39515V3.54319H61.2968V10.5843ZM50.8737 3.35957C51.3838 3.35957 51.8581 3.45419 52.2971 3.6424C52.7361 3.83113 53.1064 4.11198 53.4083 4.48446L52.4592 5.53556C52.2188 5.29979 51.9693 5.11998 51.7102 4.99466C51.4495 4.87033 51.1571 4.80742 50.8313 4.80742C50.5487 4.80742 50.2844 4.8624 50.0385 4.97286C49.7928 5.08283 49.5804 5.23688 49.401 5.43599C49.2221 5.63463 49.0813 5.8719 48.9801 6.14877C48.8781 6.42567 48.828 6.7303 48.828 7.06414C48.828 7.3975 48.8781 7.70214 48.9801 7.97902C49.0813 8.25542 49.2221 8.49318 49.401 8.69229C49.5804 8.89044 49.7928 9.04497 50.0385 9.15444C50.2844 9.2654 50.5487 9.32037 50.8313 9.32037C51.1571 9.32037 51.461 9.25054 51.7446 9.11085C52.028 8.97118 52.2784 8.79631 52.495 8.58482L53.4083 9.64384C53.0978 10.0168 52.7241 10.2967 52.2909 10.4849C51.8552 10.6741 51.3841 10.7687 50.8741 10.7687C50.3363 10.7687 49.8473 10.6741 49.4088 10.4849C48.9697 10.2967 48.5941 10.0371 48.2825 9.70624C47.9715 9.37536 47.7305 8.98454 47.5606 8.53379C47.3907 8.08304 47.3052 7.59317 47.3052 7.06414C47.3052 6.53464 47.3907 6.04475 47.5606 5.5935C47.7305 5.14326 47.9715 4.75245 48.2825 4.42157C48.5941 4.09067 48.9697 3.83113 49.4088 3.6424C49.8467 3.45419 50.3358 3.35957 50.8737 3.35957ZM45.8108 3.35957C46.038 3.35957 46.2423 3.37542 46.424 3.40762C46.6059 3.43932 46.7814 3.48935 46.9513 3.5577L46.5973 5.07936C46.4416 4.99614 46.2599 4.93224 46.0518 4.88867C45.8443 4.84458 45.6505 4.82278 45.4721 4.82278C45.2354 4.82278 45.0183 4.86388 44.8198 4.9476C44.6213 5.03082 44.4518 5.15316 44.3101 5.31513C44.1684 5.47661 44.0577 5.67475 43.9775 5.91052C43.8973 6.1453 43.8573 6.41279 43.8573 6.71148V10.585H42.3775V3.54335H43.843V4.33736C44.0697 3.99905 44.3506 3.75187 44.6857 3.59485C45.0202 3.43834 45.3953 3.35957 45.8108 3.35957ZM37.4498 4.72643C37.1855 4.72643 36.9507 4.76803 36.7452 4.85124C36.5399 4.93495 36.3629 5.05335 36.2145 5.20788C36.0656 5.36242 35.944 5.5457 35.8495 5.75919C35.755 5.97219 35.6891 6.20647 35.6509 6.46107H39.1705C39.0905 5.91225 38.9019 5.48577 38.6043 5.18213C38.3064 4.87849 37.9218 4.72643 37.4498 4.72643ZM37.4779 3.35957C37.9499 3.35957 38.3836 3.44873 38.7772 3.62805C39.1714 3.80636 39.5088 4.05899 39.7897 4.38492C40.0708 4.71083 40.2899 5.10066 40.4483 5.55338C40.6063 6.00711 40.6859 6.50789 40.6859 7.05722C40.6859 7.1548 40.6831 7.25286 40.6787 7.35095C40.6739 7.44902 40.6658 7.54214 40.6577 7.62982H35.644C35.6912 7.94832 35.7787 8.22074 35.9061 8.44611C36.0333 8.67149 36.187 8.85625 36.3661 9.00089C36.5455 9.14503 36.7463 9.25202 36.9682 9.32037C37.1901 9.38972 37.4211 9.42341 37.662 9.42341C38.0019 9.42341 38.3429 9.35852 38.6852 9.22875C39.0278 9.09896 39.3403 8.91668 39.6231 8.68141L40.36 9.77607C39.9448 10.1436 39.5044 10.4012 39.0392 10.5478C38.5739 10.6949 38.0843 10.7687 37.5699 10.7687C37.0603 10.7687 36.5928 10.6801 36.168 10.5037C35.7432 10.3279 35.3773 10.0777 35.0705 9.75429C34.7637 9.43035 34.525 9.0415 34.3551 8.58531C34.1857 8.1301 34.1004 7.62288 34.1004 7.06465C34.1004 6.51532 34.1829 6.01307 34.3481 5.55735C34.5136 5.10214 34.745 4.71134 35.0423 4.38541C35.3396 4.05899 35.6946 3.80686 36.1079 3.62805C36.5207 3.44873 36.9777 3.35957 37.4779 3.35957ZM32.9252 4.93953H30.3265V8.00514C30.3265 8.23942 30.3552 8.44053 30.4114 8.60745C30.4682 8.77389 30.545 8.91011 30.6414 9.01561C30.7383 9.12062 30.8518 9.19789 30.9812 9.24693C31.1109 9.29596 31.2512 9.32023 31.403 9.32023C31.6344 9.32023 31.8688 9.27417 32.1073 9.18056C32.3459 9.08744 32.5664 8.975 32.7696 8.84274L33.357 10.0702C33.0831 10.2609 32.7754 10.4253 32.4333 10.5625C32.0907 10.6997 31.7051 10.7686 31.2752 10.7686C30.5059 10.7686 29.907 10.5472 29.4805 10.1034C29.0529 9.65955 28.8396 8.97054 28.8396 8.03436V4.93953H27.4873V3.54321H28.8396V1.41179H30.3265V3.54321H32.9252V4.93953ZM25.9004 5.30698C25.7969 5.24359 25.6695 5.17622 25.5181 5.10488C25.3674 5.03406 25.1994 4.96967 25.0152 4.91022C24.8311 4.85177 24.6363 4.80273 24.4312 4.76361C24.226 4.72448 24.017 4.70466 23.8046 4.70466C23.3985 4.70466 23.0836 4.78193 22.8594 4.93598C22.635 5.09004 22.5229 5.29262 22.5229 5.54276C22.5229 5.6651 22.5525 5.76764 22.6112 5.85085C22.6708 5.93456 22.7496 6.00341 22.8483 6.05692C22.948 6.1114 23.0654 6.154 23.2024 6.18569C23.3393 6.21789 23.4859 6.24563 23.6419 6.2699L24.3423 6.38037C25.0834 6.49281 25.6617 6.71718 26.0775 7.05303C26.4931 7.38836 26.7007 7.85793 26.7007 8.46026C26.7007 8.79857 26.6309 9.10865 26.4917 9.39C26.3523 9.67184 26.1519 9.91504 25.89 10.1176C25.6279 10.3212 25.3045 10.4792 24.9197 10.5922C24.5351 10.7046 24.0991 10.7606 23.6132 10.7606C23.4387 10.7606 23.2353 10.7502 23.0044 10.7279C22.773 10.7056 22.5277 10.6615 22.2686 10.5961C22.0085 10.5297 21.7441 10.4376 21.475 10.3202C21.2064 10.2028 20.9482 10.0478 20.7035 9.85709L21.3902 8.70296C21.5127 8.80103 21.6459 8.89267 21.7899 8.97836C21.9341 9.06407 22.0968 9.14035 22.2786 9.20622C22.4604 9.27259 22.6613 9.3256 22.8804 9.36423C23.1003 9.40337 23.3493 9.42318 23.6276 9.42318C24.1377 9.42318 24.5223 9.34591 24.7819 9.19185C25.0415 9.03781 25.1712 8.82828 25.1712 8.56328C25.1712 8.36268 25.0767 8.19724 24.8878 8.06696C24.6989 7.93768 24.4015 7.84308 23.996 7.78462L23.2878 7.68852C22.5324 7.58105 21.9603 7.3522 21.571 7.00151C21.1812 6.65131 20.9864 6.19214 20.9864 5.62301C20.9864 5.27529 21.0513 4.96174 21.1812 4.68288C21.3109 4.4035 21.4975 4.16673 21.7407 3.97305C21.9838 3.77987 22.2776 3.63028 22.6222 3.52528C22.9667 3.41928 23.3566 3.36727 23.7908 3.36727C24.3243 3.36727 24.8263 3.43216 25.2992 3.56193C25.771 3.69121 26.1838 3.874 26.5378 4.10927L25.9004 5.30698ZM15.6685 4.80742C15.3478 4.80742 15.061 4.86785 14.8086 4.98723C14.5562 5.1076 14.3424 5.27006 14.1677 5.47264C13.9931 5.67623 13.8585 5.91448 13.764 6.18939C13.6696 6.4638 13.6223 6.75505 13.6223 7.06414C13.6223 7.37274 13.6696 7.66448 13.764 7.9384C13.8585 8.21281 13.9931 8.45205 14.1677 8.65514C14.3424 8.85872 14.5557 9.02019 14.8086 9.14056C15.061 9.26044 15.3478 9.32037 15.6685 9.32037C15.9758 9.32037 16.254 9.26292 16.504 9.14799C16.7545 9.03259 16.9692 8.87457 17.1486 8.67346C17.328 8.47287 17.4674 8.23511 17.5667 7.9607C17.6654 7.68627 17.7151 7.38709 17.7151 7.06414C17.7151 6.7402 17.6654 6.44152 17.5667 6.16709C17.4674 5.89219 17.328 5.65492 17.1486 5.45382C16.9692 5.25371 16.7545 5.0952 16.504 4.98029C16.2544 4.86536 15.9758 4.80742 15.6685 4.80742ZM19.1027 10.5843H17.6229V9.73926C17.3867 10.0528 17.0942 10.3025 16.7449 10.4887C16.3956 10.6754 15.9776 10.7686 15.4918 10.7686C15.0146 10.7686 14.5713 10.6764 14.1605 10.4932C13.7496 10.3089 13.3908 10.0528 13.084 9.7244C12.7772 9.3965 12.5367 9.00568 12.362 8.55246C12.1874 8.09873 12.1 7.60291 12.1 7.06398C12.1 6.52457 12.1874 6.02825 12.362 5.57552C12.5367 5.12229 12.7776 4.73098 13.084 4.40307C13.3908 4.07466 13.7496 3.81908 14.1605 3.63481C14.5713 3.45105 15.0146 3.35892 15.4918 3.35892C15.9776 3.35892 16.3956 3.45401 16.7449 3.64224C17.0942 3.83097 17.3867 4.08209 17.6229 4.39515V3.54319H19.1027V10.5843ZM10.6778 10.5845H9.07734V2.11778L6.18183 9.57745H4.49644L1.60045 2.19803V10.5845H0V0.294969H2.45746L5.33914 7.64468L8.22082 0.294969H10.6778V10.5845Z" fill="white"/>
</svg>
