<svg width="84" height="43" viewBox="0 0 84 43" fill="none" xmlns="http://www.w3.org/2000/svg">
<path d="M73.6355 12.2742V22.7869H69.9029V15.4124H66.3088V22.7869H62.5762V12.2734H73.6355V12.2742Z" fill="white"/>
<path fill-rule="evenodd" clip-rule="evenodd" d="M54.9103 23.1629C58.2518 23.1629 60.7331 21.1025 60.7331 17.9789C60.7331 14.9557 58.9024 12.9927 55.8428 12.9927C54.4307 12.9927 53.2656 13.4926 52.388 14.3551C52.5976 12.5724 54.0965 11.2709 55.7469 11.2709C56.1278 11.2709 58.9954 11.2648 58.9954 11.2648L60.6169 8.1441C60.6169 8.1441 57.0168 8.22652 55.3432 8.22652C51.5194 8.29353 48.9365 11.7891 48.9365 16.0346C48.9365 20.9807 51.4556 23.1629 54.9103 23.1629ZM54.9306 15.7569C56.1713 15.7569 57.0314 16.5768 57.0314 17.9786C57.0314 19.2402 56.2671 20.2798 54.9306 20.2826C53.6522 20.2826 52.7921 19.3194 52.7921 18.0001C52.7921 16.5979 53.6522 15.7569 54.9306 15.7569Z" fill="white"/>
<path d="M45.8982 19.2674C45.8982 19.2674 45.0167 19.7784 43.7002 19.8752C42.1866 19.9203 40.838 18.9589 40.838 17.2507C40.838 15.5845 42.028 14.6295 43.662 14.6295C44.664 14.6295 45.9894 15.3279 45.9894 15.3279C45.9894 15.3279 46.9593 13.5381 47.4617 12.6429C46.5417 11.9417 45.3164 11.5572 43.8911 11.5572C40.2942 11.5572 37.5083 13.9157 37.5083 17.2296C37.5083 20.5857 40.1268 22.8895 43.8911 22.82C44.9433 22.7805 46.3949 22.4089 47.2796 21.8374L45.8982 19.2674Z" fill="white"/>
<path d="M0 9.3598L5.17782 18.6675V24.3449L0.00605718 33.6343L0 9.3598Z" fill="white"/>
<path d="M19.8809 15.2804L24.7327 12.2897L34.6622 12.2804L19.8809 21.3871V15.2804Z" fill="white"/>
<path d="M19.8529 9.30483L19.8804 21.6279L14.6904 18.4208V0L19.8529 9.30483Z" fill="white"/>
<path d="M34.6617 12.2804L24.7318 12.2897L19.8529 9.30483L14.6904 0L34.6617 12.2804Z" fill="white"/>
<path d="M19.8804 33.6858V27.707L14.6904 24.5609L14.6933 43L19.8804 33.6858Z" fill="white"/>
<path d="M24.7204 30.7225L5.17746 18.6675L0 9.3598L34.641 30.7104L24.7204 30.7225Z" fill="white"/>
<path d="M14.6938 43.0001L19.8802 33.6859L24.7199 30.7225L34.6405 30.7103L14.6938 43.0001Z" fill="white"/>
<path d="M0.00634766 33.6342L14.7335 24.5613L9.78227 21.5061L5.17811 24.3448L0.00634766 33.6342Z" fill="white"/>
<path d="M40.839 29.8622C40.725 30.0084 40.575 30.1188 40.3951 30.1933C40.2105 30.2689 40.0129 30.3074 39.8136 30.3066C39.6154 30.3093 39.4183 30.276 39.2318 30.2084C39.0642 30.1472 38.9111 30.0518 38.7821 29.9282C38.6547 29.8043 38.5546 29.6549 38.4885 29.4896C38.4169 29.3085 38.3812 29.1151 38.3834 28.9202C38.3834 28.7267 38.4165 28.5475 38.4853 28.3777C38.5512 28.2075 38.6471 28.0616 38.7671 27.9391C38.8872 27.814 39.0312 27.7187 39.1929 27.6442C39.3579 27.5725 39.5378 27.5338 39.7356 27.5338C39.9486 27.5338 40.1464 27.5607 40.3263 27.6141C40.5063 27.6678 40.6591 27.7574 40.7849 27.8828L40.5661 28.2555C40.4603 28.159 40.3357 28.0858 40.2002 28.0405C40.0714 27.9987 39.9368 27.9777 39.8015 27.9781C39.6818 27.9781 39.5677 28.0018 39.4569 28.0466C39.3477 28.0908 39.248 28.1556 39.163 28.2376C39.0761 28.3218 39.0077 28.4234 38.962 28.5357C38.9111 28.6518 38.8872 28.7801 38.8872 28.923C38.8872 29.0692 38.9139 29.2004 38.9649 29.3136C39.0162 29.4301 39.085 29.5286 39.1719 29.6118C39.2588 29.6956 39.3607 29.758 39.4776 29.7999C39.5948 29.8447 39.7178 29.8655 39.8496 29.8655C40.0114 29.8655 40.1585 29.8325 40.2843 29.7698C40.4089 29.7093 40.5209 29.6253 40.6142 29.5225L40.839 29.8622ZM41.4565 30.2439V27.5904H41.9304V29.5673L43.4714 27.5904H43.9453V30.2442H43.4714V28.2673L41.9304 30.2442L41.4565 30.2439ZM47.0844 29.8622C46.9678 30.0097 46.8148 30.1238 46.6408 30.1933C46.456 30.2689 46.2583 30.3074 46.0589 30.3066C45.8608 30.3092 45.6638 30.276 45.4774 30.2084C45.3098 30.1472 45.1566 30.0518 45.0274 29.9282C44.9 29.8043 44.7999 29.6549 44.7338 29.4896C44.6622 29.3085 44.6265 29.1151 44.6287 28.9202C44.6287 28.7267 44.6618 28.5475 44.7306 28.3777C44.7969 28.2075 44.8927 28.0616 45.0124 27.9391C45.1325 27.814 45.2765 27.7187 45.4382 27.6442C45.6091 27.5685 45.7942 27.5308 45.9809 27.5338C46.1939 27.5338 46.3917 27.5607 46.5716 27.6141C46.7516 27.6678 46.9044 27.7574 47.0305 27.8828L46.8114 28.2555C46.7058 28.159 46.5813 28.0857 46.4459 28.0405C46.317 27.9988 46.1825 27.9777 46.0471 27.9781C45.809 27.9789 45.5802 28.0718 45.4083 28.2376C45.3222 28.3225 45.2539 28.4238 45.2073 28.5357C45.1564 28.6518 45.1325 28.7801 45.1325 28.923C45.1325 29.0692 45.1596 29.2004 45.2105 29.3136C45.2615 29.4301 45.3303 29.5286 45.4172 29.6118C45.5041 29.6956 45.6064 29.758 45.7233 29.7999C45.8401 29.8415 45.9631 29.8655 46.0949 29.8655C46.257 29.8655 46.401 29.8325 46.5296 29.7698C46.6542 29.7093 46.7662 29.6253 46.8595 29.5225L47.0844 29.8622ZM47.3273 27.5904H49.7588V28.0616H48.7814V30.2439H48.3075V28.0616H47.3302V27.5904H47.3273Z" fill="white"/>
<path fill-rule="evenodd" clip-rule="evenodd" d="M51.9718 30.2173C52.1517 30.1607 52.3046 30.074 52.4364 29.955L52.2924 29.5852C52.2055 29.663 52.0886 29.7286 51.9479 29.7823C51.8068 29.8361 51.6479 29.8626 51.474 29.8626C51.2132 29.8626 50.9973 29.7941 50.8262 29.654C50.6556 29.5136 50.5626 29.3172 50.5416 29.0664H52.5924C52.6135 28.9739 52.6224 28.8696 52.6224 28.7474C52.6224 28.5654 52.5892 28.4017 52.5233 28.2526C52.462 28.1078 52.3723 27.977 52.2597 27.8677C52.1455 27.7595 52.0109 27.6755 51.8638 27.6205C51.7099 27.5604 51.5461 27.53 51.381 27.5309C51.159 27.5309 50.9641 27.5696 50.7935 27.6413C50.6321 27.7095 50.4862 27.81 50.3645 27.9365C50.2463 28.0624 50.1556 28.2117 50.098 28.3748C50.0346 28.5485 50.0031 28.7323 50.005 28.9173C50.005 29.1262 50.041 29.3168 50.1069 29.487C50.171 29.6519 50.2691 29.8013 50.3948 29.9253C50.5177 30.0471 50.6673 30.1399 50.8444 30.2055C51.034 30.2731 51.234 30.3064 51.4352 30.3037C51.6173 30.3026 51.7983 30.2732 51.9718 30.2173ZM50.7724 28.1748C50.9192 28.0408 51.1141 27.9752 51.36 27.9752C51.5909 27.9752 51.7769 28.0379 51.9119 28.1634C52.0469 28.2884 52.1186 28.4615 52.1307 28.6819H50.5116C50.5346 28.4867 50.6273 28.3063 50.7724 28.1748Z" fill="white"/>
<path d="M53.2671 27.5905H53.6989L54.7244 28.9055L55.6957 27.5905H56.1154V30.2443H55.6419V28.3093L54.7183 29.5405H54.7001L53.741 28.3089V30.2439H53.2671V27.5905Z" fill="white"/>
<path fill-rule="evenodd" clip-rule="evenodd" d="M57.4042 27.5995C57.2604 27.6372 57.123 27.6964 56.9966 27.7751L57.1224 28.1513C57.2304 28.0976 57.3383 28.0528 57.4463 28.0141C57.5542 27.975 57.6921 27.9571 57.8571 27.9571C57.9889 27.9571 58.094 27.9782 58.1749 28.0198C58.2558 28.0585 58.3157 28.1183 58.3577 28.19C58.3997 28.2617 58.4268 28.3509 58.4418 28.4552C58.4568 28.5594 58.4628 28.6727 58.4628 28.7952C58.3659 28.7273 58.2553 28.6814 58.1389 28.6608C58.0264 28.6383 57.912 28.6264 57.7972 28.625C57.6561 28.625 57.5243 28.6462 57.3982 28.6816C57.2724 28.7175 57.1644 28.7712 57.0775 28.8429C56.9888 28.9144 56.9171 29.005 56.8676 29.108C56.8148 29.2208 56.7881 29.3442 56.7896 29.4689C56.7896 29.7283 56.8648 29.9311 57.0144 30.0745C57.1644 30.2175 57.3622 30.2888 57.608 30.2888C57.83 30.2888 58.0071 30.2501 58.1418 30.1727C58.2768 30.0949 58.3848 30.0057 58.4628 29.9043V30.2472H58.9064V28.6193C58.9064 28.2731 58.8316 28.0051 58.6787 27.817C58.5287 27.6292 58.2619 27.5339 57.8842 27.5339C57.716 27.5339 57.5571 27.5575 57.4042 27.5995ZM58.1963 29.7495C58.0883 29.8269 57.9472 29.8623 57.7734 29.8623C57.6205 29.8623 57.5004 29.8236 57.4167 29.7491C57.3326 29.6717 57.2906 29.5703 57.2906 29.4449C57.2906 29.3707 57.3055 29.308 57.3387 29.2514C57.3718 29.1948 57.4167 29.15 57.4677 29.1141C57.5234 29.0767 57.5853 29.0494 57.6504 29.0335C57.7196 29.0156 57.7883 29.0066 57.8603 29.0066C58.0944 29.0066 58.295 29.0633 58.46 29.1826V29.5194C58.3822 29.607 58.2936 29.6846 58.1963 29.7495ZM63.0894 26.6571C63.1853 26.6126 63.2751 26.5381 63.3592 26.4277L63.1012 26.0551C63.0353 26.1446 62.9604 26.207 62.8764 26.24C62.7872 26.275 62.6949 26.3009 62.6006 26.3174L62.5108 26.3335C62.4328 26.3471 62.349 26.3621 62.2589 26.3772C62.1143 26.4041 61.9734 26.4481 61.8392 26.5083C61.6261 26.6008 61.4554 26.7259 61.3264 26.8839C61.1975 27.0419 61.0956 27.2207 61.0264 27.4178C60.9564 27.6174 60.9092 27.8245 60.8857 28.0348C60.8615 28.2498 60.8497 28.4552 60.8497 28.6519C60.8497 28.9056 60.8825 29.1349 60.9484 29.3406C61.0147 29.5466 61.1073 29.7194 61.2302 29.8595C61.3532 30.0028 61.5003 30.1103 61.6742 30.1877C61.8481 30.2651 62.043 30.3038 62.2617 30.3038C62.4627 30.3038 62.6487 30.2651 62.8165 30.1934C62.9783 30.1246 63.125 30.0244 63.2483 29.8985C63.3681 29.776 63.4643 29.6298 63.5302 29.466C63.5989 29.3019 63.6321 29.126 63.6321 28.9411C63.6321 28.7415 63.6022 28.5598 63.5451 28.3986C63.4926 28.2448 63.4089 28.1038 63.2993 27.9843C63.1894 27.8669 63.0553 27.7751 62.9063 27.7156C62.7422 27.6506 62.5671 27.6182 62.3907 27.6203C62.2767 27.6203 62.1659 27.6353 62.0579 27.665C61.9529 27.6948 61.8521 27.7379 61.7579 27.7933C61.6665 27.846 61.5828 27.9111 61.5092 27.9868C61.4372 28.0617 61.3774 28.1452 61.3353 28.2405H61.3232C61.3325 28.1183 61.3475 27.9933 61.3742 27.865C61.4013 27.7367 61.4401 27.6142 61.4914 27.4981C61.5424 27.382 61.6083 27.2773 61.6892 27.182C61.7759 27.0858 61.8822 27.0095 62.0009 26.9584C62.1315 26.8959 62.2696 26.8508 62.4117 26.8244L62.5058 26.8072C62.5995 26.79 62.6889 26.7735 62.7745 26.7556C62.8885 26.7319 62.9932 26.7015 63.0894 26.6571ZM61.4223 29.2066C61.3759 29.0561 61.3537 28.8991 61.3564 28.7415C61.3765 28.651 61.4131 28.5651 61.4643 28.4881C61.5153 28.4075 61.5812 28.3362 61.6592 28.2731C61.8353 28.1344 62.053 28.0599 62.2767 28.0617C62.5557 28.0617 62.7655 28.1481 62.9123 28.3183C63.0595 28.491 63.1315 28.7056 63.1315 28.9651C63.1315 29.0934 63.1072 29.2098 63.0656 29.317C63.025 29.4226 62.9638 29.5191 62.8855 29.6005C62.8073 29.6819 62.7135 29.7467 62.6098 29.791C62.5019 29.8387 62.3847 29.8627 62.2528 29.8627C62.121 29.8627 62.0009 29.8358 61.8901 29.7821C61.78 29.7294 61.6827 29.6531 61.6051 29.5585C61.5238 29.453 61.4619 29.3339 61.4223 29.2066ZM67.266 27.5905H66.7921V30.2443H67.266V27.5905ZM64.3155 27.5905H64.7894V28.3867H65.2273C65.4339 28.3867 65.6017 28.4136 65.7368 28.4641C65.8718 28.515 65.9798 28.5835 66.0607 28.6669C66.1415 28.7504 66.1985 28.849 66.2317 28.959C66.2645 29.0693 66.2826 29.1826 66.2826 29.3019C66.2826 29.4212 66.2645 29.5348 66.2256 29.6481C66.1896 29.7613 66.1266 29.8595 66.0425 29.9491C65.9587 30.0386 65.8447 30.1103 65.7008 30.1641C65.5568 30.2175 65.383 30.2472 65.1731 30.2472H64.3126V27.5905H64.3155ZM64.7894 28.8307V29.8029H65.1343C65.3712 29.8029 65.539 29.7613 65.6349 29.6774C65.7311 29.594 65.7788 29.475 65.7788 29.317C65.7788 29.1557 65.7279 29.0339 65.632 28.95C65.533 28.8665 65.368 28.8246 65.1403 28.8246H64.7894V28.8307Z" fill="white"/>
<path d="M70.3996 29.8622C70.2856 30.0084 70.1356 30.1188 69.9556 30.1933C69.771 30.2689 69.5735 30.3074 69.3741 30.3066C69.1759 30.3093 68.9788 30.276 68.7923 30.2084C68.6247 30.1473 68.4716 30.0519 68.3426 29.9282C68.2152 29.8043 68.1151 29.6548 68.0487 29.4896C67.9774 29.3084 67.9418 29.115 67.9439 28.9202C67.9439 28.7267 67.9767 28.5475 68.0458 28.3777C68.1118 28.2075 68.2076 28.0616 68.3277 27.9391C68.4478 27.814 68.5913 27.7187 68.7535 27.6442C68.9243 27.5685 69.1094 27.5308 69.2961 27.5338C69.5088 27.5338 69.7069 27.5607 69.8869 27.6141C70.0668 27.6678 70.2197 27.7574 70.3454 27.8828L70.1267 28.2555C70.0209 28.159 69.8962 28.0858 69.7607 28.0405C69.6319 27.9987 69.4974 27.9777 69.362 27.9781C69.2423 27.9781 69.1283 28.0018 69.0171 28.0466C68.908 28.0908 68.8084 28.1556 68.7235 28.2376C68.6373 28.3224 68.569 28.4238 68.5226 28.5357C68.4716 28.6518 68.4478 28.7801 68.4478 28.9231C68.4478 29.0693 68.4745 29.2004 68.5254 29.3136C68.5764 29.4301 68.6455 29.5286 68.7324 29.6118C68.8194 29.6956 68.9213 29.758 69.0382 29.7999C69.1554 29.8415 69.2783 29.8655 69.4101 29.8655C69.5719 29.8655 69.7158 29.8325 69.8448 29.7698C69.9695 29.7093 70.0814 29.6253 70.1748 29.5225L70.3996 29.8622ZM70.6422 27.5904H73.074V28.0616H72.0963V30.2439H71.6228V28.0616H70.6454V27.5904H70.6422Z" fill="white"/>
<path fill-rule="evenodd" clip-rule="evenodd" d="M74.0637 27.5907H73.5898V31.4249H74.0637V30.122C74.1596 30.1847 74.2736 30.2295 74.4054 30.2592C74.5373 30.289 74.6751 30.3037 74.8162 30.3037C75.0261 30.3037 75.2149 30.265 75.386 30.1937C75.55 30.1231 75.6987 30.0208 75.8235 29.8927C75.9464 29.764 76.0394 29.615 76.1054 29.439C76.1713 29.2634 76.2044 29.0753 76.2044 28.8757C76.2044 28.6786 76.1745 28.497 76.1175 28.3328C76.0638 28.177 75.9803 28.0332 75.8716 27.9097C75.765 27.7891 75.6327 27.6943 75.4847 27.6323C75.3228 27.5624 75.1481 27.5278 74.972 27.5309C74.7863 27.5309 74.6124 27.5667 74.4475 27.6384C74.2825 27.7101 74.1535 27.7961 74.0637 27.9036V27.5907ZM74.3937 28.0827C74.5287 28.0111 74.6755 27.9752 74.8344 27.9752C74.9723 27.9752 75.0952 27.996 75.2064 28.0408C75.3144 28.0856 75.4041 28.1483 75.4793 28.2318C75.5542 28.3153 75.6112 28.411 75.6471 28.5238C75.686 28.6371 75.7042 28.7596 75.7042 28.8936C75.7042 29.037 75.6799 29.1649 75.6382 29.2842C75.5989 29.3974 75.5366 29.501 75.4551 29.5884C75.3733 29.6749 75.2742 29.7429 75.1644 29.788C75.0419 29.8396 74.9101 29.865 74.7774 29.8626C74.6488 29.8626 74.5287 29.8479 74.4147 29.8181C74.2899 29.784 74.1714 29.7295 74.0641 29.6569V28.3418C74.1478 28.2408 74.259 28.1544 74.3937 28.0827ZM79.8384 27.5904H79.3645V30.2442H79.8384V27.5904ZM76.8849 27.5904H77.3588V28.3866H77.7964C78.0034 28.3866 78.1712 28.4135 78.3062 28.464C78.4413 28.5149 78.5493 28.5833 78.6301 28.6668C78.711 28.7503 78.768 28.8488 78.8008 28.9588C78.8339 29.0692 78.8518 29.1824 78.8518 29.3018C78.8518 29.4211 78.8339 29.5347 78.7951 29.6479C78.7591 29.7612 78.696 29.8593 78.612 29.9489C78.5282 30.0385 78.4142 30.1102 78.2703 30.1639C78.1263 30.2173 77.9524 30.2471 77.7426 30.2471H76.8821V27.5904H76.8849ZM77.362 28.8306V29.8027H77.7069C77.9435 29.8027 78.1117 29.7612 78.2076 29.6773C78.3034 29.5938 78.3515 29.4748 78.3515 29.3168C78.3515 29.1556 78.3005 29.0337 78.2047 28.9499C78.1057 28.8664 77.9407 28.8245 77.713 28.8245H77.362V28.8306Z" fill="white"/>
<path d="M82.1109 28.8697L83.1243 30.2443H82.5428L81.76 29.1707L80.9654 30.2443H80.4139L81.4211 28.8934L80.4737 27.5905H81.0556L81.7781 28.5924L82.5125 27.5905H83.0644L82.1109 28.8697ZM40.4885 33.5241H39.0344V35.7364H38.5605V33.083H40.962V35.7364H40.4885V33.5241ZM43.6514 33.5538H42.7161L42.6858 34.001C42.6531 34.3798 42.6082 34.684 42.5451 34.9162C42.482 35.1491 42.404 35.3279 42.3142 35.453C42.2244 35.5784 42.1193 35.6648 41.9992 35.7067C41.8754 35.7519 41.7444 35.7741 41.6127 35.7723L41.5767 35.3129C41.6276 35.3158 41.6875 35.3039 41.7534 35.2742C41.8197 35.2444 41.8856 35.1789 41.9483 35.0807C42.0114 34.9789 42.0684 34.8359 42.1193 34.651C42.1703 34.4633 42.2034 34.2189 42.2212 33.9114L42.2693 33.0855H44.1253V35.7393H43.6514V33.5538Z" fill="white"/>
<path fill-rule="evenodd" clip-rule="evenodd" d="M45.4028 33.089C45.2496 33.1306 45.1117 33.1901 44.9948 33.2646L45.1209 33.6405C45.2289 33.5867 45.3369 33.5419 45.4445 33.5032C45.5524 33.4645 45.6907 33.4466 45.8553 33.4466C45.9875 33.4466 46.0922 33.4674 46.1731 33.509C46.2543 33.548 46.3142 33.6075 46.3562 33.6792C46.3979 33.7509 46.425 33.8404 46.44 33.9444C46.4549 34.049 46.461 34.1622 46.461 34.2844C46.364 34.2166 46.2535 34.1708 46.1371 34.1504C46.0246 34.1279 45.9102 34.1159 45.7954 34.1146C45.6547 34.1146 45.5225 34.1353 45.3967 34.1712C45.2706 34.207 45.1626 34.2608 45.0757 34.3324C44.9869 34.404 44.9152 34.4946 44.8658 34.5976C44.8131 34.7104 44.7866 34.8338 44.7882 34.9584C44.7882 35.2175 44.863 35.4207 45.013 35.5637C45.1626 35.7066 45.3607 35.7783 45.6066 35.7783C45.8286 35.7783 46.0053 35.7396 46.1403 35.6618C46.275 35.5844 46.383 35.4949 46.461 35.3935V35.7364H46.905V34.1085C46.905 33.7627 46.8298 33.4943 46.6769 33.3065C46.5269 33.1184 46.26 33.0234 45.8824 33.0234C45.7203 33.0236 45.559 33.0459 45.4028 33.089ZM46.1973 35.2383C46.0897 35.3161 45.9486 35.3519 45.7748 35.3519C45.6187 35.3519 45.5018 35.3132 45.4181 35.2383C45.334 35.1609 45.292 35.0595 45.292 34.9344C45.292 34.8599 45.3069 34.7972 45.3401 34.7406C45.3728 34.684 45.4181 34.6392 45.469 34.6033C45.52 34.5675 45.5827 34.5406 45.6518 34.5227C45.7204 34.5049 45.7909 34.496 45.8617 34.4962C46.0954 34.4962 46.2964 34.5528 46.4614 34.6718V35.0086C46.3835 35.0962 46.2948 35.1734 46.1973 35.2383Z" fill="white"/>
<path d="M47.3691 33.083H49.8009V33.5539H48.8232V35.7365H48.3497V33.5542H47.3723V33.083H47.3691Z" fill="white"/>
<path fill-rule="evenodd" clip-rule="evenodd" d="M52.0141 35.7096C52.194 35.653 52.3469 35.5663 52.4787 35.4473L52.3348 35.0775C52.2478 35.1553 52.131 35.2208 51.9899 35.2746C51.8491 35.3283 51.6902 35.3549 51.5163 35.3549C51.2555 35.3549 51.0396 35.2864 50.8686 35.1463C50.6976 35.0062 50.6049 34.8095 50.5839 34.5586H52.6348C52.6554 34.4666 52.6647 34.3619 52.6647 34.2397C52.6647 34.0581 52.6316 33.8939 52.5657 33.7449C52.5043 33.6002 52.4145 33.4694 52.3016 33.3604C52.1877 33.252 52.0532 33.1678 51.9061 33.1128C51.7522 33.0527 51.5884 33.0223 51.4233 33.0232C51.2014 33.0232 51.0065 33.0619 50.8358 33.1336C50.6743 33.2017 50.5284 33.3021 50.4068 33.4288C50.2887 33.5548 50.1978 33.704 50.1399 33.8671C50.0768 34.0408 50.0453 34.2246 50.0469 34.4096C50.0469 34.6185 50.0829 34.8091 50.1488 34.9793C50.2151 35.1492 50.3138 35.2954 50.4367 35.4176C50.5597 35.5398 50.7097 35.6322 50.8868 35.6978C51.0762 35.7655 51.2761 35.7989 51.4771 35.7963C51.6542 35.7963 51.8342 35.7662 52.0141 35.7096ZM50.8119 33.6642C50.9587 33.5302 51.1536 33.4647 51.3995 33.4647C51.6336 33.4647 51.8163 33.5302 51.9514 33.6524C52.0861 33.7778 52.158 33.9506 52.1702 34.1713H50.5511C50.574 33.976 50.6667 33.7958 50.8119 33.6642ZM52.8956 33.083H53.4953L54.4095 34.3623L53.4322 35.7365H52.8507L53.8758 34.3619L52.8956 33.083ZM54.5264 33.083H55.0003V35.7365H54.5264V33.083ZM56.6942 35.7365L55.6509 34.3619L56.6254 33.0827H56.0375L55.1172 34.3619L56.1066 35.7365H56.6942ZM58.8591 35.7096C59.039 35.653 59.1918 35.5663 59.3237 35.4473L59.1797 35.0775C59.0928 35.1553 58.9759 35.2208 58.8352 35.2746C58.6941 35.3283 58.5352 35.3549 58.3613 35.3549C58.1005 35.3549 57.8846 35.2864 57.7135 35.1463C57.5429 35.0062 57.4499 34.8095 57.4289 34.5586H59.4797C59.5008 34.4666 59.5097 34.3619 59.5097 34.2397C59.5097 34.0581 59.4769 33.8939 59.4106 33.7449C59.3492 33.6002 59.2596 33.4695 59.147 33.3604C59.0329 33.252 58.8982 33.1678 58.7511 33.1128C58.5972 33.0527 58.4334 33.0223 58.2683 33.0232C58.0467 33.0232 57.8518 33.0619 57.6808 33.1336C57.5195 33.2018 57.3736 33.3022 57.2521 33.4288C57.1338 33.5546 57.0429 33.7039 56.9853 33.8671C56.9219 34.0408 56.8904 34.2246 56.8923 34.4096C56.8923 34.6185 56.9282 34.8091 56.9942 34.9793C57.0601 35.1492 57.1591 35.2954 57.2821 35.4176C57.405 35.5398 57.5546 35.6322 57.7317 35.6978C57.9213 35.7655 58.1213 35.7989 58.3225 35.7963C58.5047 35.795 58.6856 35.7657 58.8591 35.7096ZM57.6569 33.6642C57.804 33.5302 57.9989 33.4647 58.2448 33.4647C58.4757 33.4647 58.6613 33.5302 58.7964 33.6524C58.9314 33.7778 59.0034 33.9506 59.0151 34.1713H57.3961C57.4189 33.976 57.5116 33.7958 57.6569 33.6642ZM61.4319 32.1915C61.153 32.1915 61.0001 32.0363 60.9762 31.7264H60.5294C60.5294 31.8453 60.5504 31.9528 60.5893 32.0543C60.6285 32.1557 60.6855 32.242 60.7603 32.3137C60.8351 32.3854 60.9313 32.442 61.0421 32.4864C61.153 32.5312 61.2819 32.552 61.4287 32.552C61.5638 32.552 61.6838 32.5312 61.7918 32.4864C61.8998 32.4448 61.9896 32.3854 62.0676 32.3137C62.1424 32.242 62.2026 32.1557 62.2443 32.0543C62.2864 31.9528 62.3074 31.8453 62.3074 31.7264H61.8638C61.8428 32.0363 61.6956 32.1915 61.4319 32.1915ZM60.1514 33.0827V35.7365H60.6253L62.1663 33.7596V35.7365H62.6402V33.0827H62.1663L60.6253 35.0596V33.0827H60.1514Z" fill="white"/>
</svg>
